<svg width="341" height="60" viewBox="0 0 341 60" fill="none" xmlns="http://www.w3.org/2000/svg">
<path d="M109.715 36.0034V21.5488H106.528V36.2892V38.6331H109.715H117.793V36.0034H109.715Z" fill="#AE42C9"/>
<path d="M130.094 21.5488H126.982V38.9189H130.094V21.5488Z" fill="#AE42C9"/>
<path d="M177.153 24.0362V21.2636H168.303H165.592H165.191V38.6337H165.592H168.303H177.153V36.1441H168.013V31.3335H176.189V28.5609H168.013V23.7503L177.153 24.0362Z" fill="#AE42C9"/>
<path d="M152.263 21.5488V33.6624L143.03 22.5835L142.104 21.5488H139.918V38.9189H142.794L142.858 26.4565L152.991 38.9189H152.896H154.602H155.084V21.5488H152.263Z" fill="#AE42C9"/>
<path d="M298.006 24.0362V21.2636H289.158H286.447H286.044V38.6337H286.447H289.158H298.006V36.1441H288.868V31.3335H297.045V28.5609H288.868V23.7503L298.006 24.0362Z" fill="#AE42C9"/>
<path d="M248.513 21.5488V33.6624L239.282 22.5835L238.357 21.5488H236.168V38.9189H239.047L239.108 26.4565L249.241 38.9189H249.148H250.855H251.337V21.5488H248.513Z" fill="#AE42C9"/>
<path d="M226.175 21.5488H223.063V38.9189H226.175V21.5488Z" fill="#AE42C9"/>
<path d="M276.675 21.5488L273.351 21.5573L268.492 34.4913L263.631 21.5573L260.31 21.5488L266.832 38.9075V38.9103H266.835H270.15H270.153V38.9075L276.675 21.5488Z" fill="#AE42C9"/>
<path d="M94.8184 38.7797H97.93C97.93 38.7797 90.3977 21.9812 90.3977 21.6897L90.3716 21.744V21.5525H88.0002C88.0002 21.844 80.5898 38.6425 80.5898 38.6425H83.6027L85.1847 35.1268H93.1871L94.8184 38.7797ZM86.4212 32.2055L89.1641 25.6313L91.9564 32.2055H86.4212Z" fill="#AE42C9"/>
<path d="M199.021 38.7797H202.133C202.133 38.7797 194.6 21.9812 194.6 21.6897L194.574 21.744V21.5525H192.203C192.203 21.844 184.792 38.6425 184.792 38.6425H187.805L189.387 35.1268H197.39L199.021 38.7797ZM190.624 32.2055L193.367 25.6313L196.159 32.2055H190.624Z" fill="#AE42C9"/>
<path d="M340.265 21.5488H334.93H331.52H326.481V24.3214H331.52V38.9189H334.93V24.3214H340.265V21.5488Z" fill="#AE42C9"/>
<path d="M317.076 22.6434V25.5618C317.076 25.5618 312.307 22.1061 309.863 24.4185C309.236 25.0101 309.001 26.9595 310.739 27.8313C312.037 28.4802 313.967 28.8289 315.915 29.7464C316.833 30.1789 317.528 31.087 317.833 31.8187C318.533 33.4908 318.803 36.8694 314.727 38.6301C314.727 38.6301 310.73 39.9593 306.774 37.5783L306.577 34.4655C306.577 34.4655 309.032 36.312 312.086 36.4121C312.086 36.4121 314.724 36.5578 314.872 34.2226C314.872 34.2226 315.151 32.3504 312.606 31.6929C311.044 31.2899 309.018 30.6725 307.616 29.4577C306.873 28.7088 305.294 27.314 306.603 24.104C307.065 22.9721 308.702 21.2571 311.52 21.0399C311.52 21.0399 314.431 20.5997 317.076 22.6434Z" fill="#AE42C9"/>
<path d="M30.8809 0C13.8253 0 0 13.4307 0 30C0 46.5693 13.8253 60 30.8809 60C47.9364 60 61.7617 46.5693 61.7617 30C61.7617 13.4307 47.9364 0 30.8809 0ZM30.8809 57.4529C15.3064 57.4529 2.67988 45.1861 2.67988 30.0566C2.67988 14.9246 15.3064 2.66023 30.8809 2.66023C46.4553 2.66023 59.0819 14.927 59.0819 30.0566C59.0843 45.1861 46.4577 57.4529 30.8809 57.4529Z" fill="#AE42C9"/>
<path fill-rule="evenodd" clip-rule="evenodd" d="M31.4026 11.7319H30.7303L21.55 31.223H12.8301V33.5086H20.4735L18.3451 38.0276H12.8301V40.3132H17.2686L15.0888 44.9411H18.0271L20.2243 40.3132H41.9062L44.1034 44.9411H47.0417L44.8623 40.3132H49.3028V38.0276H43.786L41.6578 33.5086H49.3028V31.223H40.5815L31.4026 11.7319ZM40.821 38.0276L38.6755 33.5086H23.455L21.3095 38.0276H40.821ZM37.5903 31.223H24.5402L30.7949 18.049L31.0653 17.5071L31.3356 18.049L37.5903 31.223Z" fill="#AE42C9"/>
</svg>
