<svg width="28" height="28" viewBox="0 0 28 28" fill="none" xmlns="http://www.w3.org/2000/svg">
<path d="M27.6576 26.008L19.6953 18.0457C21.2376 16.1405 22.1662 13.7197 22.1662 11.0831C22.1662 4.97226 17.194 0 11.0831 0C4.9722 0 0 4.9722 0 11.0831C0 17.194 4.97226 22.1662 11.0831 22.1662C13.7197 22.1662 16.1405 21.2376 18.0457 19.6953L26.008 27.6576C26.2355 27.8851 26.5341 27.9995 26.8328 27.9995C27.1315 27.9995 27.4302 27.8851 27.6577 27.6576C28.1138 27.2015 28.1138 26.4641 27.6576 26.008ZM11.0831 19.8329C6.25788 19.8329 2.33331 15.9083 2.33331 11.0831C2.33331 6.25783 6.25788 2.33325 11.0831 2.33325C15.9084 2.33325 19.833 6.25783 19.833 11.0831C19.833 15.9083 15.9083 19.8329 11.0831 19.8329Z" fill="#AE42C9"/>
</svg>
