<svg width="34" height="34" viewBox="0 0 34 34" fill="none" xmlns="http://www.w3.org/2000/svg">
<path d="M17 0C7.62563 0 0 7.62563 0 17C0 26.3744 7.62563 34 17 34C26.3744 34 34 26.373 34 17C34 7.62696 26.3744 0 17 0ZM17 31.3664C9.07939 31.3664 2.63361 24.9219 2.63361 17C2.63361 9.07807 9.07939 2.63361 17 2.63361C24.9206 2.63361 31.3664 9.07807 31.3664 17C31.3664 24.9219 24.9219 31.3664 17 31.3664Z" fill="#AE42C9"/>
<path d="M23.5843 15.5647H18.3171V10.2975C18.3171 9.5706 17.7285 8.98065 17.0002 8.98065C16.272 8.98065 15.6834 9.5706 15.6834 10.2975V15.5647H10.4162C9.68799 15.5647 9.09937 16.1547 9.09937 16.8815C9.09937 17.6084 9.68799 18.1984 10.4162 18.1984H15.6834V23.4656C15.6834 24.1925 16.272 24.7824 17.0002 24.7824C17.7285 24.7824 18.3171 24.1925 18.3171 23.4656V18.1984H23.5843C24.3125 18.1984 24.9011 17.6084 24.9011 16.8815C24.9011 16.1547 24.3125 15.5647 23.5843 15.5647Z" fill="#AE42C9"/>
</svg>
